<?xml version="1.0" encoding="UTF-8" standalone="no"?>
<!-- Created with Inkscape (http://www.inkscape.org/) -->

<svg
   xmlns:dc="http://purl.org/dc/elements/1.1/"
   xmlns:cc="http://creativecommons.org/ns#"
   xmlns:rdf="http://www.w3.org/1999/02/22-rdf-syntax-ns#"
   xmlns:svg="http://www.w3.org/2000/svg"
   xmlns="http://www.w3.org/2000/svg"
   xmlns:sodipodi="http://sodipodi.sourceforge.net/DTD/sodipodi-0.dtd"
   xmlns:inkscape="http://www.inkscape.org/namespaces/inkscape"
   version="1.1"
   id="svg10"
   width="2666.6667"
   height="1694.6667"
   viewBox="0 0 2666.6667 1694.6667"
   sodipodi:docname="map.svg"
   inkscape:version="0.92.4 (5da689c313, 2019-01-14)">
  <metadata
     id="metadata16">
    <rdf:RDF>
      <cc:Work
         rdf:about="">
        <dc:format>image/svg+xml</dc:format>
        <dc:type
           rdf:resource="http://purl.org/dc/dcmitype/StillImage" />
        <dc:title />
      </cc:Work>
    </rdf:RDF>
  </metadata>
  <defs
     id="defs14" />
  <sodipodi:namedview
     pagecolor="#ffffff"
     bordercolor="#666666"
     borderopacity="1"
     objecttolerance="10"
     gridtolerance="10"
     guidetolerance="10"
     inkscape:pageopacity="0"
     inkscape:pageshadow="2"
     inkscape:window-width="2560"
     inkscape:window-height="1417"
     id="namedview12"
     showgrid="false"
     inkscape:zoom="0.73642797"
     inkscape:cx="1133.0423"
     inkscape:cy="847.33337"
     inkscape:window-x="1912"
     inkscape:window-y="-8"
     inkscape:window-maximized="1"
     inkscape:current-layer="svg10" />
  <path
     style="fill:#fae896;fill-opacity:1;stroke-width:1.33333337"
     d="M 582.94922,1.3574219 C 547.64548,22.41294 531.88409,17.016036 589.08398,20.5 c 45.06539,-2.128689 41.76068,6.138366 16.03786,7.111668 -29.25066,-6.162127 -109.03026,-2.531365 -49.01637,5.745754 15.36085,-8.167257 121.06726,-20.131351 104.15234,-5.150391 31.80515,-6.457922 66.87443,-17.937011 101.84766,-11.173828 -85.81766,-2.090081 -25.17271,14.742019 17.65062,11.110745 32.67699,-9.204102 89.88344,18.25972 71.11291,17.599113 55.70405,8.619322 -23.74295,11.48898 10.70131,37.003033 58.49844,82.631026 102.67867,-37.277326 179.98659,-20.515669 47.1103,5.875232 47.853,-29.319478 57.1247,-32.097613 5.1692,-17.310975 42.4298,-19.403434 28.3829,-14.78125 C 1165.7007,-0.9010895 1054.5817,-1.5165557 1069.887,8.580416 1020.2665,-0.07879594 987.62178,13.186701 925.43945,8.234375 903.31937,0.64304576 848.24834,13.718391 809.02176,9.3519034 804.23728,4.0333202 757.69608,13.814722 729.58572,8.2504838 686.85197,1.6540973 661.63136,11.046766 607.77148,9.7597656 596.24291,8.3262452 583.41173,16.342967 582.94922,1.3574219 Z m 997.15628,0 c -3.3342,25.3919531 7.6754,18.3538101 0,0 z m 110.666,0 c -20.4662,20.7377471 24.0672,22.9790451 0,0 z m 221.6953,0 c -7.8562,21.0989171 16.9101,15.8806941 0,0 z m 664.8184,0 c -0.4383,15.6888001 3.7188,8.0354742 0,0 z M 29.625,2.0253906 c -2.051525,15.2352104 4.109177,9.4962514 0,0 z m 110.66016,0 c -3.56214,17.9622244 6.09732,8.8976474 0,0 z m 1329.34184,0 c -2.651,5.5146307 4.6171,20.8870114 0,0 z m 887.6308,0 c -5.7157,9.1963984 2.5436,15.6312644 0,0 z m 110.6797,0 c -3.8664,11.3079144 1.9777,15.2865954 0,0 z M 250.77148,2.5332031 c -3.61358,16.3732759 7.23013,8.1763419 0,0 z m 110.66797,0 c -1.99915,18.0388489 6.97073,6.4158886 0,0 z m 110.66602,0 c -1.99729,18.0516589 6.97198,6.404006 0,0 z m 1329.33403,0 c -1.9992,18.0386559 6.9707,6.416076 0,0 z m 334.666,0 c -6.972,6.4038863 1.9973,18.0517929 0,0 z m 110.666,0 c -6.9707,6.416076 1.9992,18.0386559 0,0 z m -222.666,0.1582031 c -4.9592,12.3186698 4.9592,12.3186698 0,0 z m -775.336,1.5605469 c -1.3957,5.2692134 1.8698,10.7447529 0,0 z m 110.666,0 c -1.3957,5.2692134 1.8698,10.7447529 0,0 z m 320.67,6.6113279 c -5.9353,1.022111 5.9353,1.022111 0,0 z m 39.8418,1.16211 c 2.7294,6.741411 11.009,-1.574942 0,0 z m -57.7305,0.01758 c -28.186,1.541366 47.425,5.756894 0,0 z m 290.3457,1.011719 c -78.4779,6.717103 103.2397,4.719395 0,0 z m -365.123,0.302734 c -7.0255,3.307524 7.0255,3.307524 0,0 z m 12.5078,0 c 11.3567,6.733369 16.7736,-3.6452398 0,0 z m 424.0312,0.927734 c -39.1896,6.715201 -26.2645,13.00752 -77.3828,11.398438 -51.1961,1.591251 -92.096,13.043146 -137.1082,14.991938 -25.7729,-7.960198 -75.695,10.605284 -63.884,19.310796 -46.4491,-8.854598 -74.8876,0.29092 -119.1512,1.361003 -30.6171,16.42774 -39.1609,-9.460536 -53.7472,7.086263 -8.258,6.66444 -67.1879,21.505359 -53.9336,16.923828 9.872,9.196545 -54.4976,-29.678794 17.4355,-10.616359 40.3704,-14.654712 -138.2197,-22.338778 -109.1301,-25.549071 -35.3224,2.911093 -65.33,4.358998 -89.114,25.499414 -8.2624,23.116227 -68.8547,14.219251 -48.3848,41.556644 10.3923,20.59538 57.39,6.96061 48.9903,39.07422 23.1335,-5.25224 59.6258,-33.65985 38.2871,-52.39649 28.3489,-27.660664 75.8831,-32.41112 27.2519,-4.234374 -5.2231,42.329594 117.0739,-1.768001 16,21.332034 -4.7202,19.67901 7.6495,1.77651 -22.5724,35.3468 -19.6875,3.85387 -76.2717,-13.99128 -69.495,-0.73981 -2.4474,-46.35237 -65.0757,13.00513 -40.1005,13.08441 -22.1353,22.25389 -84.9749,40.76245 -63.6133,41.48047 -36.6534,4.65083 49.6169,50.78466 0.4975,57.13246 -44.9263,-18.21377 -50.7649,22.47596 -43.7553,57.10387 35.5267,19.71191 2.2369,60.49384 -9.17,106.84766 -26.8437,28.14578 -40.913,64.33075 -49.3203,103.51172 6.3912,46.71046 -5.5165,96.27617 1.2715,143.70312 28.2412,32.58044 29.4768,73.61952 61.7363,105.19727 36.5474,17.59197 96.1795,-66.15765 102.3536,-0.69532 42.6566,-10.09385 33.5258,53.40773 22.3867,78.34571 13.0702,41.76629 41.7144,84.31666 33.6621,128.11718 1.0656,65.33462 -18.5891,130.67162 9.4785,195.21292 -4.4425,51.0255 32.1462,90.8179 29.3027,140.6015 46.0555,17.9702 95.0688,-24.9967 105.336,-74.916 6.4151,-45.5618 35.7597,-68.2941 22.1855,-117.2969 32.0446,-33.4772 46.6913,-71.9576 38.4805,-118.677 -6.2001,-31.31956 -11.3917,-61.42557 -9.4551,-94.44991 14.6669,-68.6273 69.8566,-120.59397 80.7793,-190.96093 21.8995,-48.42274 -0.059,-60.49369 -30.7187,-39.94727 -61.542,-5.9548 60.8165,-96.84788 46.6406,-73.53906 24.6132,-14.63301 38.9343,-39.79411 48.7031,-67.25195 14.6062,-19.33974 -26.6093,-92.18135 -36.5,-50.24219 -16.1392,15.64978 -3.566,-76.09947 -29.421,-67.83945 14.4591,49.51343 49.6355,36.80157 81.3058,61.63437 54.363,-24.83139 51.8796,52.09258 83.3359,74.57227 12.077,33.2287 14.9897,177.95928 46.7305,148 7.1249,-1.33607 20.6635,88.39377 20.1543,13.10156 -10.5094,-27.27593 -15.072,-51.84633 -7.4258,-75.34961 -9.9437,-40.6552 36.5919,-69.83782 50.5371,-105.75195 37.279,-29.33904 45.8085,22.63196 50.6262,46.35288 -8.1042,53.36136 43.0263,-14.22496 29.3504,60.08266 -0.164,38.63563 -7.3089,74.75177 14.4915,109.57383 6.7774,37.31307 8.0651,70.9975 -15.8001,10.65664 -43.4784,-10.4781 11.5631,62.32818 4.47,50.88729 7.583,36.34977 18.7242,75.05038 40.2155,107.10685 14.809,18.87748 31.6883,44.86972 69.8965,44.67188 32.5406,1.64879 -18.8759,-22.3343 1.418,-26.16211 -24.5664,-2.59514 -60.7273,-0.30506 -55.559,-36.78833 17.222,-40.1758 -23.5648,-35.82413 -15.5582,-74.71558 -1.106,-20.08636 0.4722,-67.03766 -20.5508,-91.27734 -14.4638,-22.38839 -15.9803,-82.10357 -4.3242,-81.89063 27.4541,12.30423 27.0675,91.11139 52.5683,29.60156 38.7328,-41.74603 -14.2985,-88.92253 -12.5761,-128.6875 32.7378,-72.74266 21.1796,74.7583 33.332,-18.08007 56.9347,-26.09035 94.1518,-89.82972 83.8418,-151.33203 -30.4087,-29.87446 25.6834,-64.49454 -17.1719,-67.12305 -0.9684,-44.99237 7.6811,0.35204 24.25,-17.54492 21.0651,-3.56017 19.6151,64.37785 21.7481,48 32.4267,58.49878 29.4817,-92.07189 19.3007,-54.85547 23.588,-41.20361 75.4076,-41.66577 89.3154,-97.37727 9.0922,-66.09387 14.0369,25.7968 18.7179,29.56672 -5.7229,-15.14697 13.8189,-42.50041 -0.2872,-69.33398 -16.5752,1.29119 -64.399,-21.3837 -52.4628,-12 28.9761,-30.08187 77.3382,-42.01199 112.5117,-32.65625 23.5723,17.57521 44.8906,-38.878609 68.2657,-10.54921 65.1836,-20.715277 -36.2634,12.22291 -35.8664,41.09546 -1.3529,58.4184 10.4512,42.70476 35.4327,10.10414 32.2861,-12.44234 33.6929,-53.2584 21.8652,-40.40625 20.8112,-14.86542 80.3599,-1.30547 53.7559,-6.00977 60.6382,-8.11766 60.0708,-60.632595 123.5781,-32.244139 57.9463,-24.329156 -105.3552,-23.184189 -61.3242,-27.802735 -25.4207,0.45635 -83.1186,10.025436 -71.2969,1.134766 -35.6979,-4.503674 -77.908,-7.945945 -116.9223,-9.830654 C 2331.3482,29.212615 2175.8363,23.8311 2206.7715,40.761719 2176.587,24.610853 2076.272,7.9141939 2087.666,28.802734 c -15.509,-9.72569 -52.8395,4.348553 -63.6875,-14.517578 z m -582.1621,0.251953 c -52.3713,-4.938952 -162.5296,12.350636 -52.793,6.244141 48.4898,7.159905 1.2662,-7.303035 55.6153,-3.423828 l -1.4102,-1.410156 z m -926.45702,0.154297 c -7.06774,4.017901 10.59586,2.706469 0,0 z m -41.86719,1.888672 c -24.55254,5.467998 25.01713,20.533 14.07422,15.826172 -45.23868,-19.026762 59.60288,-6.044135 10.7586,-14.713541 z m -61.23047,2.111328 c 12.01877,15.15077 46.61833,-6.513962 1.2835,0 z m 109.17773,0 c 23.02371,11.556913 31.96811,-4.799681 0,0 z m -118.66797,1.333985 c -44.47874,5.054887 -27.14037,15.589921 34.73633,12.882812 78.45136,-6.650411 -39.0091,-2.662827 -34.73633,-12.882812 z m 1353.33402,3.597656 c -26.1412,0.604995 -137.0941,3.088011 -112,27.068359 17.2807,2.86747 52.304,-26.206601 112,-27.068359 z M 360.16992,24.025391 c -55.47101,6.280748 24.78026,6.005336 0,0 z m 746.93558,0.04102 c -16.9875,1.842216 16.5611,4.235625 0,0 z m -611.00003,1.0625 c 25.3547,19.476951 50.40159,-3.08493 0,0 z m -110.66602,1.5625 c 4.77847,3.41003 -4.78176,3.400054 0,0 z M 2289.5547,27.53125 c -80.836,3.140488 63.3925,8.710207 17.0498,0.480267 l -2.6065,-0.140423 z m 46.043,0.01367 c -12.6652,5.329733 8.0993,5.288981 0,0 z m -483.4922,0.283203 c -3.6014,10.124914 11.6338,0.05532 0,0 z m -736.377,1.873047 c -16.2889,4.608281 11.4681,2.511147 0,0 z m -779.62303,0.990234 c -35.09732,25.944063 47.6537,25.254165 41.41211,17.333985 20.14032,12.981148 -62.7978,3.890731 -53.75977,5.039062 -57.71396,-3.687005 -116.95625,7.724398 -176.07422,-2.308594 -44.47085,-1.905434 -85.065272,-6.251947 -128.181134,9.930747 72.175691,19.162866 -33.33217,5.377399 7.586952,24.746174 61.388911,7.370098 -6.857913,-7.913679 -8.560111,20.59261 -18.39556394,14.59245 64.348417,22.94588 56.212891,22 5.555147,16.76256 -84.933972,40.42309 -10.816407,26.66602 13.828397,-13.156 59.608549,-29.959 62.179689,-34 34.78403,-15.39587 70.82845,-5.10897 110.20312,7.73632 30.77084,11.01539 10.84054,19.50959 37.13086,27.50782 10.01533,-2.07325 21.48234,28.64021 29.62347,34.84187 21.35484,36.80612 48.21785,7.84197 24.94294,24.77336 3.56708,19.04016 -0.0568,54.52568 3.02344,80.47461 1.01848,40.34692 36.04263,76.46099 55.04101,110 13.33807,44.3944 25.16161,70.55887 48.34703,113.82553 2.5318,-37.77481 -29.37001,-84.65413 -23.87632,-105.73764 7.68111,33.32084 28.48639,57.36067 42.89648,86.97852 20.4895,42.72171 14.09806,92.25332 70.67578,113.61523 34.05914,-2.99055 58.39244,34.82493 85.83789,64.31836 3.03334,28.52372 21.91032,48.99693 44.84571,61.6582 4.72033,-56.48389 6.20796,91.2129 18.35937,61.61133 -27.91575,38.1304 -14.77441,84.54282 -26.38477,119.73047 24.1137,54.99651 21.43022,126.46181 63.40626,169.64551 41.04466,59.3078 5.6397,139.1819 8.0039,205.6475 -5.61376,39.7614 -11.7124,76.4412 -16.51953,112.4199 -3.93232,42.1273 22.97169,-33.3916 3.98047,41.2832 -16.62124,-20.4791 -28.28375,53.5062 -16.76563,37.4844 7.31382,5.0875 23.06227,30.5771 13.95117,25.9941 1.92766,24.7351 54.9822,20.0778 41.28711,28 45.58269,8.704 -40.32182,-50.9964 21.63477,-66.459 -21.75787,-26.0914 3.71663,-57.0885 6.24219,-52.9922 14.87482,2.5983 -21.23692,-26.3602 17.97716,-21.7633 19.68127,-22.8806 41.6373,-42.5234 50.04042,-69.2601 36.33462,-26.0259 47.6881,-79.9259 54.78125,-122.3945 18.58051,-34.9689 64.74178,-28.2393 62.09562,-78.6495 9.95935,-44.7724 -4.0702,-87.5541 22.46883,-126.956 31.17763,-42.3525 4.66536,-96.6377 -34.23828,-116.05665 -27.91033,-12.24878 -53.91218,-32.83194 -60.08008,-66.28125 -6.44277,-60.8131 -64.4321,-54.10324 -80.26563,-105.375 -13.89153,-32.58113 -5.84778,-20.94349 -30,-23.62109 -36.1202,8.79421 -64.123,-52.57594 -54.52972,-27.1644 -37.43907,30.20791 -32.39453,55.08461 -72.75518,50.08681 -24.79438,-26.76495 -15.45906,-55.43535 -11.22877,-84.61968 -58.42312,-8.5627 -28.43004,-55.50838 -35.53631,-94.34236 -26.60411,33.70512 -67.30993,65.0635 -72.53906,-10.53792 -14.13328,-45.65175 14.67522,-117.35998 57.95037,-88.18613 8.03626,-34.03651 66.25032,-6.7944 53.7793,33.4961 21.74992,83.41316 19.97841,-99.49755 6.85937,-59.02344 33.40515,-36.08921 41.82697,-80.93538 63.85743,-120.00977 31.48236,10.23433 4.71221,-39.01604 48.09179,-40.39648 -11.11523,33.40532 70.66784,-20.05811 36.95622,-18.72697 -21.64847,6.33124 -13.37331,6.17435 -25.13786,-13.24178 -18.53255,-19.5789 -48.79347,-7.0929 12.5918,-22.22266 64.94157,-19.12628 27.23075,-1.19955 35.30859,26.23047 18.80017,-1.90046 49.63457,24.64934 33.66602,-14.6289 -35.06499,-6.98798 -4.11944,-24.00219 -20.98828,-42.98633 -36.99585,-22.15995 -54.25296,-60.73922 -94.65235,-47.83203 1.62843,-29.690378 -82.42847,-11.04356 -65.23626,-14.95566 -7.82169,20.90501 27.12148,45.75465 -12.4571,55.72714 10.27957,37.70969 -12.31254,22.23784 -16.24023,0.71094 -23.20718,-18.92326 -72.97013,-16.61047 -92.21094,-40.37695 17.86659,-27.716302 61.07985,-50.199468 68.89063,-23.775394 78.9266,-5.625577 -19.84686,-13.375395 0.96289,-24.242188 25.24114,18.060974 25.90233,-32.679979 42.83789,-13.458984 3.16008,10.138245 6.5386,-14.282547 25.09375,0.742187 -24.8581,9.313185 51.27019,11.667558 -12.19141,20.150391 -42.78968,11.710158 170.59648,17.64695 77.17969,21.335938 27.70264,8.63701 -5.93764,-33.952698 14.47266,-21.085938 59.51972,-3.1524 -52.2773,-40.315495 -39.72579,-31.104417 -33.52641,-8.404008 -128.09164,-16.448716 -116.75468,-7.495193 -77.4053,5.919595 55.66727,5.623229 -0.31446,23.417969 C 606.75841,66.898135 522.87447,41.462309 582.03906,35.847656 557.21307,26.045095 513.6779,66.967747 526.4375,54.417969 515.34883,67.602005 457.32374,66.237346 500.23438,56.9375 479.91192,44.177607 463.6694,30.434794 431.4375,41.316406 c -12.00453,-4.997474 -112.10203,-10.562526 -89.51758,-8.625 -10.44519,5.779468 3.08457,-2.154041 -5.81445,-2 z m 168.37695,3.632813 c -44.77583,6.494 49.6733,26.345888 26.53125,1.46289 -8.84369,-0.488765 -17.68744,-0.976368 -26.53125,-1.46289 z m 1791.62308,0.367187 c -33.0563,3.647422 32.3459,3.882763 0,0 z m -1236.666,2.482422 c 11.2638,0.990335 10.6508,6.544852 0,0 z m -399.33403,3 c 12.89576,0.721015 -12.89579,0.721008 0,0 z m 1918.59373,0.722656 c -8.8062,14.854973 32.6119,1.64514 0.069,0.01348 z M 670.84961,41.357422 c 2.54689,3.83619 -4.57886,3.120317 0,0 z m -221.41016,1.412109 c 3.08122,1.218242 -3.08542,1.213176 0,0 z m 1400.00005,0.07617 c 10.4955,0.759703 -10.4955,0.759703 0,0 z m -65.4727,2.542969 c 5.5963,1.51587 2.3337,5.222902 0,0 z m -739.7227,2.666016 c -2.6949,4.561319 -7.9447,1.725233 0,0 z m 18.9629,0.02734 c 29.1248,4.724708 -18.5053,3.687717 0,0 z m -204.38473,1.498047 c 10.10724,-11.607737 -158.71115,80.722532 3.60351,2.072266 z m -149.38282,1.283203 c 5.93621,1.025048 -5.93967,1.018644 0,0 z m 976.16995,0.152344 c -19.6222,2.959809 19.3282,5.260313 0,0 z M 1791,53.851562 c 46.6019,47.019148 8.478,-9.895886 0,0 z m -177.1738,0.642579 c -24.969,-2.565311 5.675,19.573376 0,0 z M 549.43945,55.839844 c -7.16707,14.123005 -19.32551,5.440309 0,0 z m 1259.74605,0.185547 c -3.6395,6.885518 -9.33,7.50968 0,0 z M 507.21289,58.111328 c -9.96918,3.264485 11.67793,1.729771 0,0 z M 466.625,58.837891 c 18.61357,0.670561 -19.28614,0.648413 0,0 z m -22.70117,0.0098 c -12.40067,16.921424 -72.68827,-3.321596 -2.28516,1.509766 z m 1375.76957,2.097656 c 4.3602,2.408458 2.5444,5.495621 0,0 z M 722.77148,68.824219 c 16.36666,5.823779 -0.60239,9.91843 0,0 z m 768.00002,0.611328 c 3.0802,1.217044 -3.0802,1.217044 0,0 z m -361.7031,0.845703 c -28.7129,6.298242 -80.3086,3.523155 -30.9629,21.410156 18.7494,0.879201 68.3206,-3.693508 34.1113,-19.205078 z m -768.79496,0.392578 c 43.68968,5.78781 -57.47945,14.339145 0,0 z m 1115.41996,3.605469 c 4.3599,2.407569 2.5437,5.491948 0,0 z m -888.25395,1.078125 c 6.44993,4.925496 4.80099,7.217066 0,0 z m 132.66602,4.339844 c 10.29186,5.117627 -1.82739,6.652982 0,0 z m 1925.33403,5.660156 c 2.175,16.058498 24.799,0.496913 0,0 z m -1141.334,4.078125 c 3.0799,1.217181 -3.0801,1.216921 0,0 z M -1.2285156,90.158203 c -3.6719284,8.339452 8.1848101,3.777892 0,0 z M 744.37305,90.820312 c 11.76948,2.102651 6.73356,5.505608 0,0 z m -72.48438,0.08789 c -16.63615,1.799713 16.60649,8.352427 0,0 z m 794.21683,1.117188 c 7.0268,3.305361 -7.0268,3.305361 0,0 z m -966.81644,0.509765 c 3.85543,6.108403 -5.95558,2.716033 0,0 z m 130.15039,2.15625 c 23.29123,12.299234 1.06727,0.709457 0,0 z m -104,1.410156 c 3.08136,1.219447 -3.08556,1.21439 0,0 z m -92.16015,0.09375 c 5.81867,1.320301 -10.25451,0.750452 0,0 z m 761.4922,0.966797 c -2.9064,9.625291 13.9783,1.867935 0,0 z m -535.18947,0.195313 c -17.51836,13.821798 14.73688,4.211758 0,0 z m 806.67967,0 c 0.1482,3.664378 -3.8574,2.213097 0,0 z m -8.2793,0.240234 c 2.7317,3.098564 -2.1717,2.147532 0,0 z M 401.29492,98.025391 c 10.94229,11.527329 -24.59981,11.947659 0,0 z m 1104.10348,0 c 18.6403,5.635579 0.7039,16.482219 0,0 z m -1082.62692,0.74414 c 3.07995,1.215827 -3.07992,1.215853 0,0 z m 346,3.921879 c -6.43221,5.93975 7.28902,1.99318 0,0 z m 709.06052,1.48047 c 33.0591,16.62076 -19.7865,9.44168 0,0 z m -21.7265,1.35937 c 5.9304,1.01913 -5.9304,1.01913 0,0 z m -216.666,5.16016 c -7.1749,5.10989 7.1749,5.10989 0,0 z m -1081.18559,3.36914 c -9.78492,3.75782 6.54864,7.04186 0,0 z m 287.10547,4.67187 c 16.23702,0.28991 -27.01872,7.12375 0,0 z m 2016.31252,1.75 c -16.7344,15.28844 13.6973,2.76053 0,0 z m -1236.1797,0.10156 c -23.1094,16.09299 -27.4241,4.2015 -31.7207,16.66407 11.4286,9.28104 16.6808,17.17642 28.9277,32.18359 -23.8597,14.03209 -15.6683,45.95981 28.2185,24.71842 43.1431,-13.35696 -75.5475,-82.3062 -27.4782,-60.87858 -11.5409,-1.95265 13.4775,-10.50614 2.0527,-12.6875 z m 125.9473,0.41993 c -9.6682,10.74087 -13.8479,2.53152 0,0 z m 177.332,3.96679 c 9.1226,3.77439 6.6369,8.17569 0,0 z m -1407.22658,1.72071 c -39.588442,10.59414 4.14537,25.29062 0,0 z m 129.14844,1.33398 c 4.58181,3.11065 -2.54154,3.84063 0,0 z m 1138.51754,2.66602 c -19.3941,11.09548 6.4322,7.37669 0,0 z m -893.68942,2.00586 c -3.84282,12.27547 -4.45458,3.40953 0,0 z m 165.25,11.32812 c -7.17491,5.10989 7.17491,5.10989 0,0 z m -218,1.41016 c 3.08008,1.21703 -3.08006,1.21706 0,0 z m 1557.33402,0 c 3.0799,1.21718 -3.0801,1.21692 0,0 z m 56.666,4.58984 c -1.2604,33.07172 -41.5365,39.34345 0,0 z m 206,3.10938 c -3.2476,12.05041 8.492,1.90729 0,0 z m -1068.4473,0.13867 c -29.6264,-2.83257 -27.5178,46.87462 -1.4433,29.24218 13.8778,-0.25098 21.7681,-32.73734 1.4433,-29.24218 z m 164.3809,0.23633 c -4.3669,11.23006 8.3338,1.69782 0,0 z m 942.0664,6.51562 c -7.4935,9.1221 7.2022,1.63351 0,0 z m -2277.882828,0.0742 c -25.1720515,12.19892 -0.824786,15.81233 0,0 z m 755.216798,1.29883 c -19.70141,5.18702 -1.87373,0.80434 0,0 z m -502.45899,2.49218 c -26.22566,-1.59237 9.2082,27.29121 0,0 z m 2389.79302,0.26172 c -12.867,6.15221 1.9544,11.70862 0,0 z m -1973.44536,1.3711 c 2.57289,1.75517 -7.32348,0.87408 0,0 z m 117.33398,0 c 2.56448,1.75652 -7.31954,0.87277 0,0 z M 7.375,166.5 c -13.3725789,6.17413 0.093837,10.9838 0,0 z m 2518.7305,6.85742 c -7.4988,9.1193 7.2044,1.63747 0,0 z m 90,1.33399 c -2.2716,10.84031 12.1683,-3.84348 0,0 z m -1849.33402,0.0781 c 3.07995,1.21583 -3.07993,1.21586 0,0 z m 1835.33402,2.58789 c -7.4988,9.1193 7.2044,1.63747 0,0 z m -571.334,1.00781 c 1.826,6.6495 -10.291,5.11608 0,0 z m -9.8418,5.66016 c 0.1402,3.66282 -3.8545,2.20977 0,0 z m -1313.49025,4.66602 c -4.92416,6.4521 -7.21727,4.80493 0,0 z m -382.50976,8.66601 c 0.1421,3.66405 -3.85549,2.21337 0,0 z m 270.10937,1.51172 c -1.78875,6.50358 -9.6438,4.32475 0,0 z m 179.53711,1.15625 c 4.04707,16.33962 30.24193,1.70694 0,0 z m 1615.54293,3.6582 c -8.4975,6.44644 8.7621,6.4047 0,0 z m -1843.34762,4.51368 c 5.93471,1.01566 -5.9312,1.02205 0,0 z m 55.48438,2.07617 c 42.57895,24.50994 -49.37047,10.97522 -27.17845,17.6682 9.45872,-5.54703 16.95631,-13.53874 27.17845,-17.6682 z m 876.13474,23.93359 c 9.4956,26.83807 88.3273,15.03457 67.9707,57.81836 -31.8758,-4.89449 -57.4994,-10.86727 -88.2404,-2.65884 -13.1128,-21.6724 13.8033,-37.94551 20.2697,-55.15952 z m 36.3809,0.48438 c 38.7824,1.19778 -22.0169,25.18813 0,0 z m -879.96681,2.66601 c 25.80883,11.01196 16.90568,6.99335 5.39453,32.66797 0.52369,-11.36562 -20.98025,-27.66708 -5.39453,-32.66797 z m 1722.48631,0.0606 c -18.6146,13.96999 7.1091,4.26994 0,0 z m -746.7012,2.62695 c 9.1958,22.11396 32.6329,38.71234 26.504,66.64649 21.8258,65.78054 -44.2273,18.16619 -23.3223,-13.95118 -12.6334,-16.42797 -22.6302,-39.78133 -3.1817,-52.69531 z m -995.1816,0.97266 c -2.7544,33.30671 -20.2793,61.18836 -11.30273,4.53515 l 4.20508,-2.09765 z m 730.0566,4.80469 c 19.904,19.52676 50.3149,36.65372 54.67,71.53515 26.4689,51.18221 24.8546,-19.86553 22.509,-14.02572 26.6101,-24.65963 43.5371,45.52378 28.821,36.69369 39.2469,8.15112 86.4369,2.60606 47.1172,68 -35.7956,15.59605 -83.7187,-38.0771 -102.4765,-3.89453 -6.2782,35.37783 -85.7666,-37.55858 -71.2598,-31.10547 17.4006,-29.02515 -3.322,-48.40855 -37.457,-30.58594 -17.0241,-6.00577 -104.297,35.76187 -62.1114,0.86524 30.8837,-21.06583 32.4282,-82.13938 79.9883,-79.2793 34.0846,-19.85186 67.7743,108.62194 66.8946,39.89649 43.7584,2.86968 -53.6144,-38.13944 -26.6954,-58.09961 z m 946.6407,0.86914 c 3.6147,17.31538 -23.8679,52.72151 0.5625,30.66601 36.8976,4.74552 37.0304,-24.40847 -0.5625,-30.66601 z m 48.666,0 c -17.7009,4.78284 4.8584,12.63077 0,0 z m -1575.44338,1.49804 c 2.56469,1.75891 -7.31964,0.87129 0,0 z m -91.67968,13.01563 c 47.00929,-5.83539 -44.84827,17.58131 0,0 z m -13.72656,12.11133 c -18.20564,25.39666 -39.32329,10.74585 0,0 z m 657.15042,2.60742 c -15.8761,15.98152 -4.4035,59.9015 4.3027,22.29687 -5.3088,-5.62634 -2.9825,-15.21935 -4.3027,-22.29687 z m 501.539,1.60351 c 5.8259,1.32321 -10.2523,0.75391 0,0 z m -146.2949,3.16407 c 2.3476,3.9071 -0.6936,7.78258 0,0 z m -30.3652,6.43554 c 4.4821,4.39234 -0.7047,4.9055 0,0 z m 651.4883,3.51367 c -22.4454,13.34191 -10.4601,40.45793 -32,50.12891 6.8235,4.22969 -43.8558,14.52563 -57.1261,42.80169 18.7017,67.80546 15.3253,-44.27091 29.6358,2.60066 15.2734,-32.17455 46.3257,-24.06426 31.9883,-16.81446 26.6339,-2.77308 26.1451,-39.28524 28.834,-70 l -1.332,-4.76953 z m -836.7168,3.61524 c 18.4518,7.84743 -21.1138,4.82137 0,0 z m -187.17,11.40625 c -8.1755,7.93639 9.3308,4.51555 0,0 z m 293.7637,14.60156 c 2.7251,3.10861 -2.1747,2.13585 0,0 z m -149.8769,3.9336 c 5.9312,1.02211 -5.9348,1.01559 0,0 z m -52,0.86914 c -52.9432,-8.65485 12.6172,42.98484 0,0 z m 625.7031,12.92382 c 5.1463,3.68393 -3.9911,3.63421 0,0 z m -473.0821,2.65039 c 2.1626,6.58232 -1.6977,3.13355 0,0 z m -61.955,4.52149 c -3.6009,10.12431 11.6362,0.0526 0,0 z m 793.4297,5.85547 c -7.6885,3.55515 5.1037,5.66801 0,0 z m -820.7637,5.00781 c -7.1749,5.10989 7.1749,5.10989 0,0 z m 70.0176,2.66602 c -25.1121,11.38563 12.8117,9.52817 0,0 z m -64.461,0.66601 c -0.3171,9.92749 21.444,-3.97127 0,0 z m 804.4434,11.33399 c 4.8712,5.19913 -4.8682,5.20944 0,0 z m -54.666,10.44336 c -3.2482,12.04846 8.491,1.90875 0,0 z m -689.1231,54.22265 c 2.354,3.90471 -0.6944,7.79097 0,0 z m -347.3691,6.01953 c -8.6487,6.72006 8.9039,14.7693 0,0 z m 360.0332,3.19141 c 23.2842,40.40487 27.6151,86.70406 45.6113,126.67773 5.8455,20.37657 32.8362,123.791 1.5098,59.78516 -4.4937,-24.09202 -21.7909,-39.89568 -26.0156,-76.07813 -1.5894,-33.24338 -17.0853,-128.24418 -23.3633,-101.5957 l 0.8086,-3.66601 z m -371.541,3.45703 c -3.7845,14.12457 11.0767,-3.19936 0,0 z m -462.98636,12.03125 c -14.49004,13.1326 28.23351,23.22618 1.65234,1.65234 z m 1523.06446,10.63477 c -6.7839,6.71211 5.3082,6.50537 0,0 z m -1528.19141,6.95898 c -12.17592,70.13405 32.03131,16.50881 0,0 z m 17.17969,5.75 c -19.27509,13.78904 19.24655,12.87613 0,0 z m 1458.93362,4.625 c -25.9624,63.03635 28.0161,31.37156 0,0 z m -1496.18753,6.87109 c -4.55731,5.99674 5.70063,3.04388 0,0 z m 13.33789,9.49414 c -8.61257,4.99159 10.37836,5.24709 0,0 z M 685,506.30273 c -26.485,33.12103 25.29347,9.69128 0,0 z m -47.48047,8.38868 c -44.31506,37.56503 37.66565,2.27857 36.25195,42.2832 62.16424,21.65053 -7.53462,-49.87242 -36.25195,-42.2832 z m 63.25195,6.66601 c -7.17491,5.10989 7.17491,5.10989 0,0 z m -67.07812,4.17383 c 3.9582,3.92398 0.27855,6.53097 0,0 z m -564.908204,2.15234 c -8.497596,6.44639 8.761917,6.40475 0,0 z m 648.468754,3.00782 c -13.68209,12.84541 10.99254,13.34974 0,0 z m -635.148441,6.66601 c -7.174905,5.10989 7.174905,5.10989 0,0 z m 625.761721,2.53711 c -11.33697,10.59901 5.31522,7.31637 0,0 z m -615.017581,4.13086 c -9.870156,5.45149 7.786011,3.01081 0,0 z m 573.767581,2.79688 c -4.36574,9.27775 8.36377,4.35128 0,0 z m 44.125,9.97265 c -5.77679,24.22952 -15.24559,32.19991 14.16211,28.5625 39.65229,-3.04788 7.71298,-21.54779 -14.16211,-28.5625 z m -612.064456,0.0645 c -18.405337,10.50078 19.642626,22.73686 0,0 z M 2141.0762,576.88477 c -17.7506,40.14209 -5.6187,71.93046 18.6894,81.84375 11.0346,21.50183 15.6723,57.40766 15.0059,16.70898 2.5773,-29.04467 -32.9728,-26.67188 -27.4862,-54.7116 7.7957,-13.14975 11.4799,-38.87988 -6.2091,-43.84113 z m -1466.03909,2.42578 c -16.38823,17.70257 24.54771,7.13988 0,0 z m 81.56445,0.73437 c -20.20779,12.62224 21.0815,7.32724 0,0 z m 35.74024,29.1836 c -5.3966,8.99147 10.07746,5.12279 0,0 z m 290.6719,1.2207 c -9.2423,0.61475 -6.2577,13.9314 0,0 z m -8.1446,14.9082 c -15.053,7.17782 11.4166,5.99101 0,0 z m -280.09762,4 c -3.78448,14.12984 11.07869,-3.19837 0,0 z m 1346.24802,20.08594 c -19.2913,17.16767 21.1467,36.34294 0,0 z m -208.914,3.69141 c -5.4681,34.19255 11.7462,22.01364 0,0 z m -290.666,9.55664 c 1.6296,19.00666 19.0437,-4.80964 0,0 z m 519.5546,4 c -18.2873,6.40039 23.152,11.34427 0,0 z m -23.5546,2.44336 c -10.9072,4.05851 3.0574,11.1445 0,0 z m 10.4863,4.44921 c -5.0532,19.86144 16.0448,62.62931 17.418,9.77344 -6.2574,19.36095 -6.4444,-13.77262 -17.418,-9.77344 z m -21.1543,13.10743 c -5.3456,28.35948 18.8417,2.58382 0,0 z m -196,3.33398 c -10.2303,5.58845 10.1703,4.01208 0,0 z m 193.334,8.44336 c -3.2474,12.04639 8.4912,1.90775 0,0 z m 41.334,0.22266 c -10.4098,10.00619 10.4066,10.00853 0,0 z m -1445.43169,0.85937 c 8.6083,20.30594 -9.9155,12.55258 0,0 z m 1453.43169,2.96289 c 2.5282,14.10327 -49.3345,52.4075 -13.3321,34.84375 10.2424,55.73161 35.3464,-6.9238 16.9981,-34.42187 z m -50.6504,2.84375 c -18.3943,17.81239 -1.2986,28.80465 0,0 z m 118.7597,30.66797 c -9.4871,4.82047 9.5029,0.60614 0,0 z m -130.7773,2.44336 c -3.2468,12.04833 8.4922,1.90629 0,0 z m -1.3184,8.22266 c -9.9048,44.95154 -50.5143,61.86474 -58.305,90.01537 2.139,55.07165 13.0137,63.59633 50.8675,70.13697 7.3677,-22.06226 25.7257,-70.01969 18.0899,-94.15234 -9.4748,-30.15006 25.4724,-45.93221 -10.6524,-66 z m 39.3184,2.66601 c -7.1749,5.10989 7.1749,5.10989 0,0 z m -6.666,9.33399 c -7.1749,5.10989 7.1749,5.10989 0,0 z m -95.2539,29.33398 c -6.7871,6.70946 5.3039,6.5081 0,0 z m -50.5664,23.03711 c 11.6703,10.20759 10.374,18.36871 0,0 z m 201.1523,0.96289 c -23.0781,32.32592 0.072,77.02228 2.668,16.74219 -3.4531,-6.44559 -6.2529,-6.42128 -2.668,-16.74219 z M 86.183594,818.69141 c -9.870149,5.45146 7.786009,3.01081 0,0 z m 1392.257806,1.37304 c -2.651,9.76775 -10.0261,13.15734 0,0 z m 488.8145,5.33399 c -8.1614,14.76132 16.2181,19.16887 0,0 z m 204.7812,0.20117 c -18.3379,7.03678 -64.4028,14.78504 -17.0781,16.8457 9.2626,10.70265 20.5948,-12.27919 17.0781,-16.8457 z m -675.7754,20.71484 c 16.3394,48.57497 -40.7441,46.75253 0,0 z m 525.3262,1.81055 c -11.9746,12.15526 10.7518,15.41076 0,0 z m 189.2031,0.0391 c -10.5573,4.82414 20.496,4.75281 0,0 z m -743.3965,1.81055 c 2.1538,6.59198 -1.6951,3.12181 0,0 z m -885.21091,4.7168 c -9.87013,5.45147 7.78602,3.0108 0,0 z m 1554.08981,0.29492 c -14.6906,29.65752 -11.0974,35.73331 -5.9687,68.91015 9.5977,32.90628 5.8461,-66.52848 9.8008,-20.28515 16.3388,54.22388 21.3343,1.07105 8.2402,-26.46485 19.3541,-8.73172 8.4077,-25.75296 -10.9062,-10.29882 -1.039,-6.16141 -3.1166,-5.15979 -1.1661,-11.86133 z m -1561.35348,0.0234 c -6.9876,11.04961 6.94064,6.90997 0,0 z m 1652.69728,0.50781 c -17.1529,14.73378 -1.8082,41.93799 16.0859,56.1875 54.996,9.43519 -3.0187,67.36855 30.2774,59.65234 24.3286,33.85258 29.3505,12.01521 49.9199,-3.90234 26.517,60.06102 49.4705,28.68238 9.9824,-15.01172 11.5472,-28.36918 -47.0424,-82.46804 -74.5234,-75.42774 -25.1517,53.09579 -4.3778,-15.94913 -31.7422,-21.49804 z m 21.8223,3.17383 c -4.8982,13.95573 18.3799,4.21131 0,0 z m -60,9.13867 c -3.6002,10.12441 11.6292,0.0502 0,0 z m -209.1856,0.51172 c -6.9931,11.04786 6.9424,6.91389 0,0 z m 274.5176,1.8164 c -8.4625,8.9769 9.2345,6.19725 0,0 z m -46.7559,0.53321 c -5.5709,7.96881 6.9546,11.88461 0,0 z m -37.3437,0.44336 c -16.8,16.48117 13.9399,1.9766 0,0 z m 163.4472,7.21484 c -8.4975,6.44644 8.7621,6.40469 0,0 z m -287.2421,5.87305 c -16.3721,8.71205 9.2203,21.36 0,0 z m 318.5625,6.24609 c -3.2462,12.04575 8.487,1.90926 0,0 z m -162.043,0.37305 c -33.3082,9.0555 31.8786,16.54062 2.7969,0.0996 z m -27.291,3.84961 c 7.1372,24.10979 27.8481,-3.22686 0,0 z m -711.6075,11.33398 c 22.4987,83.02864 1.3975,70.71408 -0.05,4.28241 z m 910.2735,2 c -2.2512,17.98889 11.0349,-2.21871 0,0 z m -2.666,2.44336 c -45.8259,25.06886 -5.1635,53.52226 0,0 z m -220,5.63281 c 3.0799,1.21718 -3.0801,1.21692 0,0 z m 89.334,11.92383 c -7.8044,30.67748 7.8021,30.67892 0,0 z m 150.7636,2.47656 c -6.0106,26.11121 22.6106,26.00035 0,0 z m -164.0976,0.85547 c -10.2322,5.59016 10.1708,4.01577 0,0 z m 178.0664,15.75586 c -9.3761,8.15656 22.1224,19.56984 0,0 z m -183.9883,3.57813 c -9.8701,5.45149 7.7861,3.01078 0,0 z m -6.0781,6.66601 c -1.5839,18.68697 11.094,-1.75012 0,0 z m -35.5137,2.97461 c -15.5787,3.11147 10.9503,8.39343 0,0 z m 238.1797,0.74024 c 2.4832,20.20076 22.3495,12.97886 0,0 z m -12.207,2.95312 c -3.0287,10.16424 14.9499,9.11752 0,0 z m -297.2676,2.66602 c -15.5977,22.40139 68.0965,-2.41662 52.3144,6.30664 -4.3663,-8.55223 -52.9659,-12.02073 -44.1718,-4.30664 -3.0281,5.01627 -5.9576,-0.14252 -8.1426,-2 z m 59.1054,0.56836 c -32.5555,55.28943 41.1539,6.8619 2.3399,2.68554 z m 266.3692,3.20898 c -4.8382,21.60876 11.0117,6.83589 0,0 z m -974.0449,6.17187 c 2.1575,6.58172 -1.6915,3.13437 0,0 z m 898.0449,9.82813 c -3.2468,12.04833 8.4922,1.90629 0,0 z m 71.8379,0.22266 c -7.9946,9.51672 13.9596,7.639 0,0 z m 9.5742,0 c -6.7839,6.7121 5.3082,6.50535 0,0 z m -309.5566,0.0312 c -9.6093,15.21494 27.641,12.09681 0,0 z m -630.3536,4.63476 c 10.2802,45.38768 4.3777,93.70868 1.3301,23.23638 -1.8983,-7.6774 -1.3442,-15.46952 -1.3301,-23.23638 z m 938.8477,6 c -4.3613,10.98828 15.3515,12.31508 0,0 z m -137.709,9.46098 c -11.167,12.5316 -8.5014,121.6155 -23.3066,79.873 -35.9897,-15.486 -19.549,-30.7767 -19.1797,-52.7617 3.9897,-17.4568 -64.4874,-9.4206 -49.2461,-15.4707 8.1662,38.4589 -72.203,91.0817 -55.3374,68.4395 7.1666,57.5576 -71.2156,51.2116 -68.9028,101.7929 -5.0508,38.7725 13.978,76.4676 17.3164,113.3106 -19.5829,57.578 99.5313,-14.2325 79.3086,0.6894 45.9847,-43.0609 68.3011,50.51 82.041,15.334 -3.2964,36.3074 2.9645,10.3383 18.6035,49.2656 28.1514,15.4371 56.4871,17.5262 73.3965,-10.3574 16.4526,-56.1964 45.2819,-120.0651 8,-174.9082 -7.8604,-37.275 -38.5998,-56.6001 -40.6943,-96.9753 -1.436,-29.0577 -21.8811,-44.5272 -21.9991,-78.2317 z m -79.9726,4.0351 c -8.0983,0.8252 8.0932,0.828 0,0 z m -613.004,15.8379 c 4.0024,37.3642 -39.0993,46.7877 -37.9785,83.375 6.4416,22.2735 -18.5178,133.7876 27.127,92.625 8.5681,-54.112 23.091,-109.3716 20.9512,-151.334 -7.0154,-2.6289 4.0411,-29.2672 -10.0997,-24.666 z m 1029.6836,20.9922 c -8.4975,6.4464 8.7621,6.4047 0,0 z m -156.8867,21.8184 c -13.8633,7.0266 15.0148,8.483 0,0 z m -1748.12888,5.1894 c 18.00776,23.1076 1.72605,1.1579 0,0 z m 1844.64648,6.666 c -32.4081,26.5177 8.593,13.4038 0,0 z m -88.3105,2 c -10.2351,5.5889 10.1691,4.0182 0,0 z m -1029.1856,7.334 c -6.9506,7.8605 -12.7186,6.6716 0,0 z m 1102.4688,8.7109 c -23.6768,19.2253 20.0044,18.9141 0,0 z m -2417.95122,3.2891 c -7.17491,5.1099 7.17491,5.1099 0,0 z m 2348.00002,0 c -7.1749,5.1099 7.1749,5.1099 0,0 z m -1122.5879,17.334 c 2.5416,3.8406 -4.5818,3.1106 0,0 z m 302.5879,19.916 c -8.6602,9.5895 8.7685,9.8148 0,0 z m 789.8379,2.1895 c 11.4,40.8077 29.68,28.2048 0,0 z m 20.2734,7.2265 c -9.4897,4.8185 9.5009,0.6107 0,0 z m -823.4433,2.668 c -7.4983,9.1211 7.2035,1.6348 0,0 z m 721.332,53.332 c -6.4322,5.9399 7.289,1.9931 0,0 z m 144.6328,123.0879 c 16.7269,22.4248 28.0031,77.3577 14.6992,64.9375 -4.2783,47.887 43.9574,-42.3501 18.3171,-25.8987 -15.9999,-5.6482 -18.1576,-31.4978 -33.0163,-39.0388 z m -184.6328,62.2461 c -7.1749,5.1099 7.1749,5.1099 0,0 z m -23.3965,7.6387 c -11.4795,55.6567 52.3451,11.5001 13.841,5.0273 -7.058,4.0199 -8.3812,-3.9831 -13.841,-5.0273 z m 208.5195,0.023 c -3.0179,25.3583 -84.665,64.63 -23.1691,65.6719 10.9116,-18.3997 17.2641,-81.867 28.0988,-62.6738 -1.437,5.7408 -3.3071,-2.6194 -4.9297,-2.9981 z m -27.9121,37.9102 c 2.7316,3.0986 -2.1717,2.1475 0,0 z m -1801.38084,40.123 c 6.62977,8.5999 -4.14546,15.3986 0,0 z m 1060.80274,8.9707 c -9.754,13.8061 16.5571,11.9407 0,0 z m -954.68946,24 c -20.07902,25.7807 48.26513,-6.7263 0,0 z m -106.60937,5.334 c -4.91651,6.9917 4.91649,6.9917 0,0 z m 22.07812,9.334 c 4.83993,4.1379 -6.71512,2.5334 0,0 z m 9.10547,0.5098 c 21.75813,11.1292 -26.55972,13.5652 -0.51758,0.1562 z m 249.48242,8.8828 c -26.37522,-4.2283 21.54301,18.3785 0,0 z m -162,62.6074 c -9.2681,3.221 9.27228,3.2145 0,0 z m 19.33399,6.666 c -4.72941,9.5951 7.21438,0.9374 0,0 z m -8.81836,1.334 c -26.43199,1.1199 -60.85284,21.3812 -76.40039,27.7285 0.37739,24.1207 -46.20475,-6.2077 -55.44922,17.6035 34.44049,9.7682 -29.63511,9.0204 -64.63997,10.1707 -46.04816,-2.4664 -93.14358,-11.346 -140.35808,-4.0926 7.48719,23.0155 -156.30651,9.5581 -121.90263,6.0177 -122.94866,-1.2744 -244.93422,15.1564 -367.7653356,16.328 1.40653394,38.3772 70.4848136,9.0826 101.1069296,18.2442 826.297696,0 1652.595386,0 2478.893086,0 21.0901,-14.8445 89.8297,17.5565 86.668,-21.334 -68.1338,-0.384 -156.4296,2.3164 -210.668,0.7695 -25.109,-9.6419 78.0797,-19.6665 35.668,-20.7226 -42.3946,-19.779 -114.173,-10.3614 -163.252,-26.9649 -64.1455,-1.0688 -129.9387,-15.4253 -191.6487,-2.0187 -40.1183,-1.1651 -129.5891,-1.4368 -136.0993,-5.9442 -27.4916,-8.563 -47.4029,2.7439 -78.9194,5.4854 -51.349,-17.0358 -105.4717,34.091 -156.1314,9.0869 -46.5768,-13.3125 -122.6736,0.5357 -138.2832,-5.0957 -34.0857,-7.37 -74.8837,15.1123 -112.666,13.4102 -32.72,-11.486 -73.6185,6.8518 -110.8724,0.5728 -136.3961,-4.4711 -272.4829,7.0748 -405.12765,32.9604 -55.91527,-4.3694 -93.81757,9.3177 -131.97106,3.3074 -54.59792,0.4517 -27.63088,-9.2632 25.93276,-2.4462 -27.66864,-14.1355 -103.87274,9.143 -91.61404,-34.6835 32.08465,-5.8395 -20.22484,-25.2444 26.98437,-30.4258 -10.7322,-3.6396 6.08425,-4.6444 -1.48437,-7.957 z m -37.96484,4.5098 c -5.01843,8.2385 7.19297,3.5736 0,0 z m -12.55079,3.4902 c -2.27113,10.8403 12.17205,-3.8444 0,0 z m 732.66802,28 c 7.0268,3.3054 -7.0268,3.3054 0,0 z m -19.2559,2.666 c 9.3119,3.7396 -12.8497,3.0438 0,0 z m 258.7266,3.3965 c 51.1769,12.9803 -61.2056,26.4266 0.1601,0.2539 z m -1060.80473,1.9375 c -11.5278,3.2959 11.44466,3.4894 0,0 z m 1760.66603,2.7441 c 3.08,1.2159 -3.08,1.2159 0,0 z m -934.5879,1.2559 c 8.7923,4.8675 -12.0003,4.3915 0,0 z m 240.0332,0 c -9.4896,4.8187 9.4995,0.609 0,0 z m 23.2227,0.1875 c -21.2286,4.8563 -0.525,0.5007 0,0 z m -339.4961,1.293 c 13.7571,0.7341 -14.4346,0.6807 0,0 z m 1010.0957,9.83 c 13.7369,2.0831 -2.0421,6.7782 0,0 z m -6.0215,9.5762 c 22.8521,-1.2491 -12.7011,7.6948 0,0 z m -1645.30666,4.3848 c 13.36311,13.17 -55.68307,1.71 -70.09766,2.8222 21.40153,1.4087 48.28734,0.1688 70.09766,-2.8222 z m 13.39453,2.7285 c 26.75487,-3.9541 -3.13483,10.8643 0,0 z m 381.22263,0.1641 c 2.5645,1.7585 -7.3199,0.8738 0,0 z m -157.084,0.9589 c 37.9585,7.0071 -17.6865,5.2623 0,0 z m 1384.0176,1.543 c 14.4318,0.9077 -17.7357,4.8094 0,0 z m -1405.5683,1.334 c 4.5818,3.1106 -2.5416,3.8406 0,0 z m -42.82817,2.7266 c 9.5541,2.5182 3.57025,7.1615 0,0 z m -11.09375,0.086 c 8.50329,5.0617 -49.25254,0.9202 0,0 z m 1466.00002,1.2637 c 3.0802,1.217 -3.0802,1.217 0,0 z m 29.2226,0.088 c 2.5736,1.7601 -7.324,0.8743 0,0 z m -1618.55465,1.3417 c 5.93127,1.0222 -5.93476,1.0158 0,0 z m 1642.66605,0.6075 c 58.9195,0.1704 -23.7097,5.5654 0,0 z m -1698.66605,0.6308 c 3.08123,1.2183 -3.08543,1.2133 0,0 z m 1746.66605,1.4278 c 5.9304,1.0191 -5.9304,1.0191 0,0 z m -2510.037141,2.1406 c 13.001474,3.2691 -27.646286,0.8034 0,0 z m 235.716801,0.092 c 437.44033,-0.02 874.88024,0.6725 1312.32034,1.0605 -513.3331,-0.1355 -1026.66998,0.9567 -1540.000031,-0.6074 75.890729,-0.6002 151.786991,-0.3312 227.679691,-0.4531 z"
     id="path20"
     inkscape:connector-curvature="0" />
</svg>
