<?xml version="1.0" encoding="UTF-8" standalone="no"?>
<!DOCTYPE svg PUBLIC "-//W3C//DTD SVG 1.1//EN" "http://www.w3.org/Graphics/SVG/1.1/DTD/svg11.dtd">
<svg width="100%" height="100%" viewBox="0 0 1950 1300" version="1.1" xmlns="http://www.w3.org/2000/svg" xmlns:xlink="http://www.w3.org/1999/xlink" xml:space="preserve" xmlns:serif="http://www.serif.com/" style="fill-rule:evenodd;clip-rule:evenodd;stroke-linejoin:round;stroke-miterlimit:2;">
    <g transform="matrix(-1.50304,0,0,1.05997,1965.47,136.758)">
        <g id="g3723">
            <clipPath id="_clip1">
                <rect id="path3725" x="10.295" y="519.049" width="1297.37" height="726.306"/>
            </clipPath>
            <g clip-path="url(#_clip1)">
                <path d="M10.415,1138.36C10.415,977.705 10.79,962.36 10.415,963.338C9.127,966.695 18.66,964.39 20.16,961C21.853,957.177 26.492,956.703 27.512,960.25C28.948,965.243 31.183,969 32.718,969C33.612,969 35.148,969.729 36.133,970.62C37.363,971.733 40.121,972.309 44.947,972.458C51.122,972.65 52.269,972.998 54.438,975.338C57.648,978.803 62.57,979.026 63.513,975.75C70.936,949.949 75.395,947.537 81.38,966.084C85.727,979.554 90.04,983.06 90.81,973.75C91.147,969.687 100,967.519 100,971.5C100,972.767 102.333,973 115,973C127.353,973 130,972.747 130,971.567C130,969.076 133.183,968.891 163.183,969.636C207.227,970.729 217.971,970.666 218.809,969.309C219.207,968.665 221.525,967.994 223.961,967.819C228.36,967.502 228.403,967.462 230.787,961.5C232.106,958.2 234.311,953.032 235.687,950.015C237.706,945.587 237.964,944.172 237.028,942.673C234.901,939.268 238.291,938.067 250.133,938.032C261.608,937.998 261.94,938.174 261.986,944.32C262.055,953.469 275.791,975.127 277.766,969.201C278.248,967.756 282,967.578 282,969C282,969.55 283.098,970 284.441,970C285.784,970 287.154,970.44 287.487,970.978C288.198,972.13 335,971.905 335,970.75C335,970.338 338.785,970 343.411,970C351.667,970 351.873,969.94 354.547,966.762C356.495,964.447 357.961,963.614 359.689,963.84C361.018,964.014 362.683,963.678 363.389,963.092C364.304,962.333 366.221,962.438 370.086,963.459C375.886,964.993 375.412,965.171 378.932,960.15C379.72,959.026 380.666,958.294 381.035,958.522C381.404,958.749 382.559,958.29 383.603,957.5C385.869,955.784 389,955.556 389,957.107C389,957.716 389.704,957.944 390.565,957.613C391.751,957.158 391.984,957.476 391.525,958.922C390.723,961.449 392.066,962.156 394.409,960.443C395.824,959.408 396.023,958.733 395.206,957.748C394.494,956.891 394.405,955.054 394.948,952.467C395.406,950.285 396.07,941.548 396.423,933.051C396.775,924.554 397.195,917.471 397.355,917.311C397.878,916.789 452.391,916.986 456.368,917.525C460.816,918.127 463.329,916.613 462.455,913.859C462.131,912.836 462.309,912 462.851,912C465.333,912 467,913.406 467,915.5C467,916.757 467.775,918.083 468.722,918.447C469.704,918.824 470.026,919.407 469.472,919.804C467.92,920.915 465.893,925 466.893,925C468.149,925 472,931.713 472,933.902C472,934.885 472.9,936.505 474,937.5C475.1,938.495 476,939.915 476,940.655C476,941.395 476.675,942 477.5,942C478.346,942 479,942.895 479,944.051C479,945.494 480.112,946.537 482.75,947.569C490.74,950.693 492.93,952.258 494.046,955.641C494.793,957.904 495.782,959 497.078,959C499.229,959 502.992,962.327 503.015,964.25C503.055,967.491 504.62,968.267 508.377,966.908C510.369,966.188 512,965.239 512,964.799C512,964.36 512.822,964 513.826,964C516.152,964 519.299,960.494 521.006,956C522.802,951.271 523.521,950.455 527.598,948.521C529.526,947.606 531.53,945.737 532.05,944.368C532.57,943 533.335,942.074 533.748,942.311C536.51,943.894 545.769,933.712 543.079,932.049C542.379,931.616 542.902,930.855 544.481,930.01C546.082,929.153 547.054,927.721 547.148,926.081C547.229,924.661 547.342,922.785 547.398,921.912C547.454,921.038 548.07,919.633 548.767,918.788C549.464,917.944 549.766,916.553 549.437,915.696C548.993,914.54 549.827,913.864 552.67,913.075C557.878,911.629 559,911.725 559,913.617C559,914.853 559.529,915.053 561.25,914.467C562.488,914.046 568.9,913.509 575.5,913.275C582.1,913.04 587.928,912.432 588.45,911.924C588.973,911.416 589.98,911 590.689,911C595.326,911 596,908.392 596,890.433C596,869.196 597.021,851.428 598.14,853.193C598.596,853.912 598.976,857.264 598.985,860.643C598.995,864.978 599.412,866.944 600.401,867.324C602.126,867.985 602.968,865.192 602.986,858.75C603,853.956 604.194,852.524 605.487,855.75C605.873,856.712 606.439,862.181 606.746,867.902C607.303,878.304 607.303,878.304 609.4,875.402C610.553,873.806 612.998,870.828 614.833,868.785C618.17,865.07 618.17,865.07 617.895,838.785C617.623,812.691 617.642,812.411 620.56,800.258C623.168,789.396 625,784.986 625,789.566C625,794.553 631.828,819.979 631.93,815.375C632.151,805.489 636.283,802.202 639.12,809.655C641.67,816.355 649.054,803.032 650.655,788.843C651.292,783.2 655,780.853 655,786.094C655,790.493 656.202,789.633 659.674,782.75C662.684,776.783 662.804,776.092 662.324,767.5C661.822,758.5 661.822,758.5 665.354,754.686C667.297,752.588 669.543,748.763 670.344,746.186C671.146,743.609 674.828,732.95 678.526,722.5C682.225,712.05 685.553,701.7 685.922,699.5C686.641,695.217 689.401,702.305 699.436,734.197C703.483,747.061 707.697,756 709.713,756C710.947,756 711.135,757.768 710.852,766.669C710.6,774.564 710.837,777.446 711.762,777.754C712.45,777.983 712.768,778.567 712.468,779.051C711.796,780.139 715.707,788 716.921,788C717.405,788 718.25,786.313 718.797,784.25C719.345,782.188 719.84,781.288 719.897,782.25C719.953,783.213 720.407,784 720.903,784C721.4,784 722.043,786.138 722.332,788.75C723.416,798.556 726.08,807 728.091,807C728.862,807 730,799.183 730,793.892C730,791.085 730.361,790.201 731.352,790.582C732.302,790.946 733.503,788.774 735.381,783.3C739.882,770.18 741.168,769.462 744.445,778.244C748.287,788.54 748.724,788.473 752.619,777C756.532,765.476 758.351,765.38 762.118,776.5C763.649,781.02 765.46,784.629 766.28,784.798C768.366,785.225 768.981,792.253 768.991,815.75C768.998,832.669 769.236,836 770.435,836C771.978,836 785.364,833.3 788.25,832.407C789.755,831.941 790,830.543 790,822.433C790,813 790,813 794.393,813C797.375,813 798.971,812.518 799.362,811.5C799.949,809.971 803.566,809.513 806.418,810.607C807.687,811.094 808,812.876 808,819.607C808,831.524 812.781,831.464 816.44,819.5C817.449,816.2 818.663,813.005 819.136,812.399C819.61,811.794 820.292,809.094 820.652,806.399C821.013,803.705 821.801,801.169 822.404,800.765C824.277,799.51 829.785,799.928 831.298,801.441C832.095,802.238 833.666,802.639 834.815,802.338C837.991,801.507 838.639,776.297 835.5,775.671C833.66,775.304 833.673,775.261 835.67,775.136C837.58,775.016 837.923,774.229 838.529,768.573C838.98,764.361 839.614,762.298 840.367,762.587C841.066,762.856 842.879,759.108 844.989,753.033C849.699,739.471 852.268,738.612 855.402,749.555C858.786,761.371 860.986,760.833 865.517,747.083C867.158,742.104 869.062,737.812 869.75,737.546C871.436,736.894 874,737.956 874,739.307C874,740.401 880.015,757.085 880.729,757.971C880.938,758.23 881.467,757.862 881.905,757.154C883.267,754.95 884.087,767.434 884.009,789.171C883.929,811.352 884.211,812.552 888.682,809.035C890.147,807.883 891.605,807.335 891.923,807.818C892.821,809.182 905,810.182 905,808.891C905,807.642 925.336,807.898 931,809.218C938.93,811.067 972.091,811.055 971.783,809.204C971.627,808.267 971.05,807.169 970.5,806.765C969.95,806.361 970.647,806.024 972.05,806.015C973.452,806.007 975.089,806.489 975.687,807.087C976.47,807.87 976.962,807.87 977.446,807.087C977.816,806.489 977.724,806 977.242,806C976.761,806 976.837,803.973 977.412,801.495C978.944,794.889 984,793.838 984,800.125C984,805.895 985.372,807 992.535,807C997.032,807 999.005,806.62 999.015,805.75C999.025,804.937 999.287,804.865 999.765,805.543C1001.85,808.502 1011.88,812.244 1015.68,811.477C1017.78,811.051 1020.85,810.777 1022.5,810.868C1026.92,811.111 1031,804.404 1031,796.885C1031,795.05 1032.79,794.495 1037.25,794.948C1038.87,795.113 1038.99,793.452 1038.87,771.813C1038.81,758.991 1039.09,739.456 1039.51,728.401C1040.28,707.821 1039,703.79 1032.9,707.564C1032.4,707.869 1032,707.642 1032,707.059C1032,706.477 1033.8,706 1036,706C1040,706 1040,706 1040,692.667C1040,672.351 1043.76,659.16 1045.6,673.022C1046.86,682.538 1047.8,678.95 1048.54,661.87C1049.2,646.335 1049.44,644.698 1051.13,644.255C1052.16,643.986 1053,643.482 1053.01,643.133C1053.02,642.785 1054.16,635.975 1055.55,628C1061.37,594.719 1063.92,579.272 1064.2,575.5C1064.62,569.973 1073.99,569.016 1074,574.5C1074,576.15 1074.7,581.325 1075.56,586C1076.41,590.675 1077.51,596.975 1078,600C1079.05,606.526 1080.88,616.119 1081.99,621C1082.43,622.925 1083.49,628.267 1084.35,632.872C1085.49,639.015 1086.45,641.626 1087.95,642.679C1089.75,643.941 1090,645.177 1090,652.985C1090,659.538 1090.39,662.249 1091.5,663.357C1092.33,664.182 1093.04,665.677 1093.09,666.679C1093.14,667.753 1093.53,667.304 1094.04,665.586C1094.52,663.983 1094.68,662.295 1094.4,661.836C1094.11,661.376 1094.22,660.449 1094.64,659.775C1096,657.572 1098.09,672.087 1098.66,687.75C1099.21,703 1099.21,703 1101.67,703C1103.05,703 1103.85,703.437 1103.5,704C1103.16,704.55 1102.01,705 1100.94,705C1099.1,705 1099.03,705.661 1099.43,718.25C1099.66,725.538 1100.18,747.313 1100.58,766.641C1101.31,801.782 1101.31,801.782 1111.15,801.641C1121,801.5 1121,801.5 1121,804.384C1121,806.856 1122.81,814.754 1123.63,815.869C1124.42,816.932 1127,812.767 1127,810.441C1127,807.939 1127.25,807.778 1130.32,808.277C1133.82,808.845 1136,804.705 1136,797.486C1136,795.801 1136.56,794.986 1137.75,794.958C1157.27,794.485 1157,794.469 1157,796.123C1157,797.515 1158.47,803.575 1161.94,816.5C1163.4,821.945 1165.29,825.102 1166.76,824.54C1172.6,822.296 1173.03,823.826 1172.33,844.606C1171.68,864 1171.68,864 1173.84,864C1175.47,864 1176,863.393 1176,861.55C1176,860.202 1176.63,858.74 1177.41,858.3C1178.19,857.86 1179.22,855.962 1179.7,854.082C1181.32,847.824 1187,847.605 1187,853.801C1187,860.149 1189.08,863 1193.7,863C1197.62,863 1198,863.221 1198,865.5C1198,866.875 1198.45,868 1199,868C1199.55,868 1200,868.675 1200,869.5C1200,870.738 1201.83,871 1210.5,871C1221,871 1221,871 1221,868.469C1221,867.076 1221.64,865.69 1222.43,865.387C1223.25,865.074 1224.56,861.75 1225.48,857.668C1226.37,853.726 1227.69,847.8 1228.42,844.5C1229.16,841.2 1229.99,839.175 1230.27,840C1231.11,842.483 1234.87,859.347 1235.6,863.912C1235.98,866.255 1236.83,868.38 1237.49,868.636C1238.16,868.892 1239.26,871.666 1239.93,874.8C1243.96,893.595 1251,900.23 1251,885.238C1251,883.522 1251.45,881.84 1252,881.5C1252.55,881.16 1253,879.836 1253,878.558C1253,874.999 1256.52,874.589 1259.14,877.843C1260.37,879.372 1261.45,880.01 1261.69,879.347C1261.94,878.638 1263.03,879.121 1264.51,880.597C1267.55,883.644 1268.76,883.624 1270.18,880.5C1270.81,879.125 1271.91,878 1272.64,878C1273.37,878 1274.25,876.848 1274.6,875.44C1275.01,873.833 1275.75,873.075 1276.61,873.403C1277.36,873.69 1278.44,873.042 1279.02,871.963C1279.75,870.604 1281.06,870.024 1283.29,870.079C1285.05,870.122 1285.94,870.385 1285.25,870.662C1283.72,871.28 1283.55,877.316 1285.08,876.807C1285.67,876.609 1286.91,875.109 1287.83,873.474C1288.75,871.838 1289.77,870.275 1290.1,870C1290.42,869.725 1291,868.262 1291.37,866.75C1291.86,864.738 1292.66,864 1294.35,864C1296.1,864 1296.64,863.457 1296.58,861.75C1296.52,859.973 1296.97,859.566 1298.75,859.813C1301.03,860.13 1301.84,858.635 1300,857.5C1297.09,855.7 1299.17,854.13 1304,854.489C1306.75,854.694 1309,854.443 1309,853.931C1309,853.419 1309.45,853 1310,853C1310.55,853 1311,853.675 1311,854.5C1311,857.082 1315.81,856.386 1316.18,853.75C1316.39,852.248 1317.08,851.598 1318.25,851.794C1319.21,851.955 1320,851.669 1320,851.157C1320,850.646 1321.35,850.03 1322.99,849.788C1326.65,849.251 1330.79,852.809 1328.81,854.79C1328.16,855.437 1327.97,856.305 1328.38,856.718C1328.8,857.132 1329.93,856.413 1330.91,855.121C1333.51,851.674 1338.52,852.935 1340.75,857.593C1345.52,867.609 1378.53,861.86 1378.18,851.07C1377.87,841.136 1377.87,841.136 1381.18,840.818C1383.19,840.624 1384.56,839.915 1384.67,839C1385.45,832.896 1386.22,830.021 1386.96,830.473C1387.43,830.764 1387.56,831.962 1387.25,833.135C1386.86,834.655 1387.09,835.136 1388.07,834.81C1388.83,834.558 1389.75,833.26 1390.12,831.926C1390.58,830.29 1390.83,830.078 1390.9,831.275C1391.16,835.99 1402.31,836.2 1402.83,831.5C1403.02,829.85 1403.74,827.825 1404.43,827C1405.92,825.246 1409,815.966 1409,813.262C1409,812.238 1409.42,810.972 1409.94,810.45C1410.45,809.927 1411.02,807.475 1411.19,805C1411.5,800.5 1411.5,800.5 1415.58,800.414C1417.82,800.367 1420.19,800.003 1420.83,799.605C1421.49,799.199 1422.05,799.457 1422.12,800.191C1422.18,800.911 1422.29,802.136 1422.37,802.914C1422.51,804.436 1425,805.742 1425,804.296C1425,803.817 1426.44,803.315 1428.21,803.181C1429.98,803.046 1431.77,802.388 1432.19,801.718C1432.76,800.826 1433,800.902 1433.06,802C1433.12,802.825 1433.32,805.888 1433.51,808.806C1433.8,813.313 1436.86,823.086 1439.05,826.5C1439.4,827.05 1440.26,829.621 1440.96,832.213C1442.88,839.309 1458.25,844.995 1460.4,839.403C1461.13,837.485 1462.78,837.635 1463.18,839.656C1464.6,846.956 1472.28,841.746 1471.79,833.815C1471.17,823.958 1472.08,814.417 1473.62,814.701C1475.48,815.044 1477.32,804.675 1476.77,796.968C1476.47,792.807 1476.86,786.131 1477.69,781.136C1478.48,776.386 1479.46,770.136 1479.87,767.247C1480.89,759.971 1482.43,758.759 1483.76,764.195C1486.8,776.726 1488.77,790.93 1488.28,796.808C1487.68,804.02 1489.58,814.626 1491.62,815.409C1492.55,815.766 1493,817.666 1493,821.269C1493,824.201 1493.49,827.089 1494.09,827.687C1494.87,828.47 1494.87,828.962 1494.09,829.446C1492.93,830.163 1492.59,837.78 1493.61,840.418C1494.27,842.137 1498,842.631 1498,841C1498,840.45 1499.24,839.993 1500.75,839.985C1505.86,839.956 1506.11,839.3 1506.41,824.644C1506.66,812.884 1506.97,810.693 1508.6,808.889C1510.18,807.145 1510.53,805.064 1510.66,796.52C1510.86,783.288 1511.83,773.747 1513.59,767.568C1514.37,764.856 1515,760.945 1515,758.878C1515,756.81 1515.45,754.839 1516,754.499C1517.21,753.753 1518.99,758.087 1519.02,761.815C1519.03,763.292 1519.96,768.1 1521.1,772.5C1522.62,778.392 1523.13,783.382 1523.06,791.434C1522.97,802.292 1524.06,808.206 1526.65,810.794C1527.95,812.092 1528.27,814.673 1528.48,825.5C1528.86,844.784 1528.64,843.738 1532.62,845.622C1535.99,847.221 1536.3,847.224 1537.16,845.669C1537.76,844.605 1539.37,844 1541.61,844C1543.69,844 1544.87,843.594 1544.5,843C1543.68,841.673 1548.3,841.703 1549.63,843.033C1551.06,844.455 1553.7,843.267 1554.31,840.931C1555.39,836.804 1567,838.24 1567,842.5C1567,848.553 1570.1,844.94 1572.58,836C1573.26,833.533 1574.68,832.045 1576.37,832.015C1576.84,832.007 1577,832.9 1576.71,834C1576.24,835.799 1576.68,836 1581.09,836C1586.24,836 1588.14,832.539 1584.81,829.213C1583.9,828.298 1584.1,827.51 1585.68,825.763C1587.35,823.929 1587.86,821.644 1588.35,813.703C1588.87,805.267 1592,794.617 1592,801.277C1592,804.066 1596.42,803.449 1598.04,800.435C1599.2,798.255 1599.2,797.741 1598.02,797.011C1596.87,796.301 1596.85,795.88 1597.94,794.576C1598.66,793.709 1598.96,793 1598.61,793C1598.27,793 1599.27,791.65 1600.85,790C1604.34,786.343 1606.75,786.164 1607.59,789.5C1607.93,790.875 1608.84,792 1609.61,792C1611.18,792 1611.53,794.655 1610.02,795.167C1608.07,795.826 1610.48,801.297 1612.87,801.663C1618.49,802.521 1621,808.274 1621,820.323C1621,822.9 1621.59,824.353 1623,825.232C1624.1,825.919 1625,827.048 1625,827.741C1625,828.433 1625.45,829 1626,829C1626.55,829 1627.01,827.537 1627.01,825.75C1627.04,818.394 1628.14,815 1630.5,815C1632.86,815 1633.96,818.394 1633.99,825.75C1634,827.922 1634.48,829 1635.45,829C1637.38,829 1638.41,834.767 1637.53,840.653C1636.83,845.292 1636.83,845.292 1645.43,844.756C1656.34,844.075 1657,843.524 1657,835.059C1657,821.279 1659.06,817.871 1667.17,818.207C1675,818.532 1678.2,823.49 1677.2,833.75C1676.7,838.889 1675.48,838.798 1694.2,835.003C1702.28,833.364 1712.09,831.727 1715.99,831.364C1723.09,830.705 1723.09,830.705 1722.83,819.602C1722.63,810.775 1722.92,807.86 1724.25,805.376C1729.32,795.915 1729.4,775.613 1724.41,766C1722.41,762.138 1722.02,759.656 1721.65,748.5C1721.41,741.35 1720.98,734.231 1720.69,732.68C1720.4,731.117 1720.88,728.219 1721.77,726.18C1722.88,723.63 1723.7,716.819 1724.44,704C1725.5,685.5 1725.5,685.5 1728.25,685.184C1730.7,684.901 1731,685.188 1731,687.827C1731,689.535 1731.63,691.029 1732.5,691.362C1733.51,691.749 1734,691.315 1734,690.035C1734,688.254 1736.63,673.715 1741.16,650.5C1744.25,634.693 1744.32,633.959 1742.99,631.481C1742.25,630.102 1742.02,627.988 1742.43,626.322C1742.8,624.77 1743.5,621.114 1743.98,618.198C1744.45,615.282 1745.38,612.244 1746.04,611.448C1746.98,610.319 1746.97,609.672 1746.01,608.509C1744.71,606.946 1744.82,605.856 1747.43,594.5C1750.36,581.769 1751.87,573.583 1752.56,566.75C1753.2,560.332 1755,557.2 1755,562.5C1755,564.333 1755.53,565 1757,565C1758.62,565 1759,564.333 1759,561.5C1759,555.053 1760.73,557.913 1761.27,565.25C1761.56,569.237 1762.71,575.425 1763.82,579C1764.93,582.575 1766.62,589.1 1767.58,593.5C1768.53,597.9 1769.7,602.26 1770.16,603.189C1770.68,604.223 1770.58,605.141 1769.91,605.554C1768.78,606.257 1769.56,613.054 1770.89,613.998C1772.09,614.853 1773.82,627.43 1772.88,628.45C1771.71,629.714 1771.76,635.584 1772.95,637.764C1773.48,638.719 1774.37,641.975 1774.93,645C1777.26,657.551 1779.25,666.775 1780.59,671.188C1781.36,673.766 1782,676.824 1782,677.982C1782,679.817 1784.37,690.887 1785.62,694.903C1785.96,695.995 1786.38,695.884 1787.5,694.403C1789.2,692.145 1789.48,686 1787.88,686C1787.11,686 1787.07,685.604 1787.76,684.75C1788.31,684.062 1789.08,679.134 1789.47,673.798C1790.52,659.374 1792.38,659.044 1794.04,672.988C1794.97,680.798 1795.74,684 1796.68,684C1798.31,684 1798.43,685.69 1796.84,686.221C1795.95,686.516 1795.95,689.061 1796.84,696.84C1797.48,702.468 1798,709.251 1798,711.914C1798,714.577 1798.69,718.413 1799.54,720.44C1800.81,723.472 1801.18,731.487 1801.65,765.786C1801.96,788.7 1802.62,808.501 1803.11,809.789C1803.6,811.077 1804,816.601 1804,822.065C1804,832 1804,832 1807.25,832.009C1809.04,832.014 1812.86,832.301 1815.75,832.648C1821,833.279 1821,833.279 1821,818.889C1821,804.5 1821,804.5 1824.5,804.5C1828,804.5 1828,804.5 1828,809.309C1828,815.398 1829.12,814.7 1832.08,806.771C1835.56,797.44 1837.39,795.785 1840.4,799.28C1841.68,800.776 1843.24,802 1843.87,802C1844.49,802 1845,802.45 1845,803C1845,803.55 1844.52,804 1843.93,804C1842.69,804 1843.75,808.168 1845.25,809.127C1845.78,809.473 1847.07,809.532 1848.12,809.259C1850.22,808.708 1853.14,810.651 1852.81,812.383C1850.68,823.581 1862.49,831.241 1871.44,824.468C1872.87,823.384 1876.28,822.998 1884.44,822.991C1904.08,822.976 1906,822.488 1906,817.508C1906,813.294 1906,813.294 1915.25,812.647C1937.79,811.071 1932.59,810.813 1932.59,811.968L1932.59,1287.59L10.415,1287.59L10.415,1138.36Z" style="fill:#88442255;fill-rule:nonzero;"/>
            </g>
        </g>
    </g>
</svg>
